<svg xmlns="http://www.w3.org/2000/svg" viewBox="0 0 384.41 242.54"><defs><style>.cls-1{fill:#f90606;}.cls-2{fill:#00edff;}</style></defs><title>资源 1</title><g id="图层_2" data-name="图层 2"><g id="图层_1-2" data-name="图层 1"><circle class="cls-1" cx="17.79" cy="227.71" r="3.86"/><circle class="cls-2" cx="2.91" cy="0.89" r="0.89"/><circle class="cls-2" cx="2.91" cy="5.16" r="0.89"/><circle class="cls-2" cx="5.71" cy="36.12" r="0.89"/><circle class="cls-2" cx="5.71" cy="178.9" r="0.89"/><circle class="cls-2" cx="5.71" cy="213.78" r="0.89"/><circle class="cls-2" cx="69.94" cy="218.91" r="0.89"/><circle class="cls-2" cx="180.21" cy="218.91" r="0.89"/><circle class="cls-2" cx="160.51" cy="226.6" r="0.89"/><circle class="cls-2" cx="169.67" cy="226.6" r="0.89"/><circle class="cls-2" cx="178.83" cy="226.6" r="0.89"/><circle class="cls-2" cx="187.99" cy="226.6" r="0.89"/><circle class="cls-2" cx="197.15" cy="226.6" r="0.89"/><circle class="cls-2" cx="206.31" cy="226.6" r="0.89"/><circle class="cls-2" cx="215.46" cy="226.6" r="0.89"/><circle class="cls-2" cx="224.62" cy="226.6" r="0.89"/><circle class="cls-2" cx="204.75" cy="218.91" r="0.89"/><circle class="cls-2" cx="382.05" cy="5.16" r="0.89"/><ellipse class="cls-2" cx="383.52" cy="11.07" rx="0.89" ry="0.92"/><circle class="cls-2" cx="378.66" cy="36.01" r="0.89"/><circle class="cls-2" cx="383.52" cy="171.21" r="0.89"/><circle class="cls-2" cx="378.66" cy="179.27" r="0.89"/><circle class="cls-2" cx="378.66" cy="214.15" r="0.89"/><circle class="cls-2" cx="378.66" cy="237.04" r="0.89"/><ellipse class="cls-2" cx="378.66" cy="239.42" rx="0.89" ry="0.92"/><circle class="cls-2" cx="346.52" cy="239.42" r="0.89"/><circle class="cls-2" cx="309.52" cy="239.42" r="0.89"/><circle class="cls-2" cx="180.21" cy="237.04" r="0.89"/><circle class="cls-2" cx="204.75" cy="237.04" r="0.89"/><circle class="cls-2" cx="314.65" cy="237.04" r="0.89"/><circle class="cls-2" cx="314.65" cy="218.91" r="0.89"/><circle class="cls-2" cx="192.3" cy="239.42" r="0.89"/><circle class="cls-2" cx="75.07" cy="239.42" r="0.89"/><circle class="cls-2" cx="69.94" cy="237.04" r="0.89"/><circle class="cls-2" cx="38.07" cy="239.42" r="0.89"/><circle class="cls-2" cx="263.36" cy="5.16" r="0.89"/><circle class="cls-2" cx="121.6" cy="5.16" r="0.89"/><circle class="cls-2" cx="121.6" cy="0.89" r="0.89"/><circle class="cls-2" cx="263.36" cy="0.89" r="0.89"/><circle class="cls-2" cx="382.05" cy="0.89" r="0.89"/><rect class="cls-2" x="3.45" y="0.59" width="378.42" height="0.59"/><polygon class="cls-2" points="7.23 74.95 6.64 74.95 6.64 59.44 8.47 57.61 8.47 32.21 5.54 29.28 5.54 5.22 7.54 3.22 21.28 3.22 22.2 2.3 41.43 2.3 42.81 0.93 43.23 1.34 41.68 2.9 22.44 2.9 21.53 3.81 7.79 3.81 6.13 5.47 6.13 29.04 9.06 31.97 9.06 57.85 7.23 59.69 7.23 74.95"/><polygon class="cls-2" points="377.77 74.58 377.18 74.58 377.18 59.32 375.35 57.49 375.35 31.6 378.28 28.67 378.28 5.1 376.62 3.45 362.88 3.45 361.97 2.53 342.73 2.53 341.18 0.98 341.6 0.56 342.98 1.94 362.21 1.94 363.13 2.85 376.86 2.85 378.87 4.86 378.87 28.91 375.94 31.85 375.94 57.24 377.77 59.08 377.77 74.58"/><rect class="cls-2" x="3.27" y="4.87" width="378.05" height="0.59"/><rect class="cls-2" x="188.27" y="2.18" width="8.79" height="2.2"/><path class="cls-2" d="M207.61,4.68h-9.38V1.88h9.38Zm-8.79-.6H207V2.48h-8.2Z"/><path class="cls-2" d="M228.67,4.68h-9.39V1.88h9.39Zm-8.79-.6h8.2V2.48h-8.2Z"/><path class="cls-2" d="M261.46,4.68h-9.38V1.88h9.38Zm-8.79-.6h8.2V2.48h-8.2Z"/><path class="cls-2" d="M166.13,4.68h-9.39V1.88h9.39Zm-8.79-.6h8.2V2.48h-8.2Z"/><path class="cls-2" d="M133.56,4.68h-9.38V1.88h9.38Zm-8.79-.6H133V2.48h-8.2Z"/><path class="cls-2" d="M187.1,4.68h-9.39V1.88h9.39Zm-8.79-.6h8.19V2.48h-8.19Z"/><rect class="cls-2" x="383.22" y="11.39" width="0.59" height="230.41"/><rect class="cls-2" x="378.37" y="35.94" width="0.59" height="204.04"/><circle class="cls-2" cx="5.71" cy="239.42" r="0.89"/><rect class="cls-2" x="6.02" y="239.13" width="372.65" height="0.59"/><circle class="cls-2" cx="5.71" cy="237.04" r="0.89"/><rect class="cls-2" x="6.02" y="236.75" width="371.82" height="0.59"/><rect class="cls-2" x="5.42" y="35.94" width="0.59" height="204.04"/><rect class="cls-2" x="4.98" y="218.61" width="175.41" height="0.59"/><rect class="cls-2" x="204.57" y="218.61" width="175.1" height="0.59"/><rect class="cls-2" x="69.65" y="217.08" width="0.59" height="19.96"/><rect class="cls-2" x="314.35" y="217.08" width="0.59" height="19.96"/><circle class="cls-2" cx="0.89" cy="11.07" r="0.89"/><circle class="cls-2" cx="0.89" cy="170.84" r="0.89"/><rect class="cls-2" x="0.59" y="10.66" width="0.59" height="231.51"/><rect class="cls-2" x="3.52" y="239.06" width="1.1" height="0.73" transform="translate(-235.36 243.49) rotate(-90)"/><rect class="cls-2" x="2.42" y="239.06" width="1.1" height="0.73" transform="translate(-236.46 242.39) rotate(-90)"/><rect class="cls-2" x="5.29" y="241.8" width="1.1" height="0.73"/><rect class="cls-2" x="5.29" y="240.71" width="1.1" height="0.73"/><rect class="cls-2" x="378.21" y="241.8" width="1.1" height="0.73"/><rect class="cls-2" x="378.21" y="240.71" width="1.1" height="0.73"/><rect class="cls-2" x="380.86" y="239.06" width="1.1" height="0.73" transform="translate(141.99 620.84) rotate(-90)"/><rect class="cls-2" x="379.76" y="239.06" width="1.1" height="0.73" transform="translate(140.89 619.74) rotate(-90)"/><rect class="cls-2" x="213.36" y="229.72" width="0.73" height="1.1"/><rect class="cls-2" x="214.83" y="229.72" width="0.73" height="1.1"/><rect class="cls-2" x="216.29" y="229.72" width="0.73" height="1.1"/><rect class="cls-2" x="217.76" y="229.72" width="0.73" height="1.1"/><rect class="cls-2" x="219.22" y="229.72" width="0.73" height="1.1"/><rect class="cls-2" x="220.69" y="229.72" width="0.73" height="1.1"/><rect class="cls-2" x="222.15" y="229.72" width="0.73" height="1.1"/><rect class="cls-2" x="223.62" y="229.72" width="0.73" height="1.1"/><path class="cls-2" d="M370.44,229.28H357.76v-6.09h12.68Zm-12.08-.59h11.49v-4.91H358.36Z"/><rect class="cls-2" x="363.74" y="223.49" width="6.41" height="5.49"/><path class="cls-2" d="M358.36,227.81h-1.7v-3.52h1.7Zm-1.1-.59h.5v-2.34h-.5Z"/></g></g></svg>